<svg height="1000" width="938" xmlns="http://www.w3.org/2000/svg"><path d="M800 167.25q137.5 137.5 137.5 332.5 0 193.75 -137.5 331.25t-331.25 137.5q-195 0 -332.5 -137.5 -136.25 -136.25 -136.25 -331.25 0 -196.25 136.25 -332.5 135 -136.25 332.5 -136.25 195 0 331.25 136.25zm-383.75 271.25q0 -61.25 38.75 -104.375t97.5 -43.125l72.5 0l0 105l-72.5 0q-12.5 0 -21.875 9.375t-9.375 21.875l0 72.5l103.75 0l0 103.75l-103.75 0l0 257.5q116.25 -15 205 -103.75 107.5 -107.5 107.5 -257.5 0 -152.5 -107.5 -258.75t-257.5 -106.25q-152.5 0 -258.75 106.25t-106.25 258.75q0 150 106.25 257.5 88.75 88.75 206.25 103.75l0 -257.5l-103.75 0l0 -103.75l103.75 0l0 -61.25z"/></svg>