<svg height="1000" width="729" xmlns="http://www.w3.org/2000/svg"><path d="M438.75 622.25q0 -27.5 14.375 -49.375t38.125 -21.875q22.5 0 36.875 21.875t14.375 49.375 -14.375 49.375 -36.875 21.875q-23.75 0 -38.125 -21.875t-14.375 -49.375zm-73.75 186.25q-6.25 0 -35 -.625t-33.75 -.625q-143.75 0 -220 -73.125t-76.25 -215.625q0 -88.75 58.75 -153.75 -5 -3.75 0 -62.5 6.25 -65 25 -111.25 72.5 7.5 181.25 82.5 37.5 -10 100 -10 63.75 0 100 10 46.25 -32.5 93.75 -53.75 46.25 -21.25 66.25 -25l20 -3.75q20 50 26.25 111.25 5 57.5 -1.25 62.5 58.75 65 58.75 153.75 0 161.25 -97.5 233.75 -75 55 -198.75 55 -5 0 -33.125 .625t-34.375 .625zm1.25 -36.25q132.5 0 198.75 -31.25 67.5 -31.25 67.5 -130 0 -42.5 -27.5 -78.75t-67.5 -42.5q-17.5 -2.5 -93.75 1.25t-77.5 3.75q-21.25 0 -61.875 -2.5t-65 -3.125 -53.125 5.625 -46.25 21.25q-41.25 37.5 -41.25 95 0 98.75 66.25 130 63.75 31.25 197.5 31.25l3.75 0zm-126.25 -221.25q22.5 0 36.25 21.875t13.75 49.375 -13.75 49.375 -36.25 21.875q-23.75 0 -38.75 -21.875t-15 -49.375 15 -49.375 38.75 -21.875z"/></svg>