<svg height="1000" width="938" xmlns="http://www.w3.org/2000/svg"><path d="M456.25 311.25q0 -80 56.875 -135.625t136.875 -55.625q85 0 138.75 58.75 60 -12.5 122.5 -45 -20 67.5 -83.75 106.25 53.75 -7.5 110 -31.25 -38.75 58.75 -96.25 101.25l0 23.75q0 136.25 -60 255 -60 121.25 -190 206.25t-296.25 85q-162.5 0 -295 -86.25 20 2.5 47.5 2.5 133.75 0 237.5 -81.25 -65 -1.25 -113.125 -40t-65.625 -95q12.5 5 35 5t50 -6.25q-65 -13.75 -108.75 -66.25t-43.75 -125q36.25 20 86.25 23.75 -86.25 -60 -86.25 -161.25 0 -47.5 26.25 -95 157.5 191.25 397.5 198.75 -6.25 -21.25 -6.25 -42.5z"/></svg>